<svg width="18" height="18" viewBox="0 0 18 18" fill="none" xmlns="http://www.w3.org/2000/svg">
<path d="M12.3332 15.6666V2.33329H2.33317V14.8333C2.33317 15.0543 2.42097 15.2663 2.57725 15.4225C2.73353 15.5788 2.94549 15.6666 3.1665 15.6666H12.3332ZM14.8332 17.3333H3.1665C2.50346 17.3333 1.86758 17.0699 1.39874 16.6011C0.929896 16.1322 0.666504 15.4963 0.666504 14.8333V1.49996C0.666504 1.27895 0.754301 1.06698 0.910582 0.910704C1.06686 0.754423 1.27882 0.666626 1.49984 0.666626H13.1665C13.3875 0.666626 13.5995 0.754423 13.7558 0.910704C13.912 1.06698 13.9998 1.27895 13.9998 1.49996V7.33329H17.3332V14.8333C17.3332 15.4963 17.0698 16.1322 16.6009 16.6011C16.1321 17.0699 15.4962 17.3333 14.8332 17.3333ZM13.9998 8.99996V14.8333C13.9998 15.0543 14.0876 15.2663 14.2439 15.4225C14.4002 15.5788 14.6122 15.6666 14.8332 15.6666C15.0542 15.6666 15.2661 15.5788 15.4224 15.4225C15.5787 15.2663 15.6665 15.0543 15.6665 14.8333V8.99996H13.9998ZM3.99984 3.99996H8.99984V8.99996H3.99984V3.99996ZM5.6665 5.66663V7.33329H7.33317V5.66663H5.6665ZM3.99984 9.83329H10.6665V11.5H3.99984V9.83329ZM3.99984 12.3333H10.6665V14H3.99984V12.3333Z" fill="#C6C6C6"/>
</svg>
