<svg width="16" height="18" viewBox="0 0 16 18" fill="none" xmlns="http://www.w3.org/2000/svg">
<path d="M2.16667 5.66663V15.6666H13.8333V5.66663H2.16667ZM2.16667 3.99996H13.8333V2.33329H2.16667V3.99996ZM14.6667 17.3333H1.33333C1.11232 17.3333 0.900358 17.2455 0.744078 17.0892C0.587797 16.9329 0.5 16.721 0.5 16.5V1.49996C0.5 1.27895 0.587797 1.06698 0.744078 0.910704C0.900358 0.754423 1.11232 0.666626 1.33333 0.666626H14.6667C14.8877 0.666626 15.0996 0.754423 15.2559 0.910704C15.4122 1.06698 15.5 1.27895 15.5 1.49996V16.5C15.5 16.721 15.4122 16.9329 15.2559 17.0892C15.0996 17.2455 14.8877 17.3333 14.6667 17.3333ZM3.83333 7.33329H7.16667V10.6666H3.83333V7.33329ZM3.83333 12.3333H12.1667V14H3.83333V12.3333ZM8.83333 8.16663H12.1667V9.83329H8.83333V8.16663Z" fill="#C6C6C6"/>
</svg>
