<svg width="14" height="19" viewBox="0 0 14 19" fill="none" xmlns="http://www.w3.org/2000/svg">
<path d="M13.6666 18.3333H11.9999V16.6666C11.9999 16.0036 11.7365 15.3677 11.2677 14.8989C10.7988 14.43 10.163 14.1666 9.49992 14.1666H4.49992C3.83688 14.1666 3.20099 14.43 2.73215 14.8989C2.26331 15.3677 1.99992 16.0036 1.99992 16.6666V18.3333H0.333252V16.6666C0.333252 15.5616 0.772239 14.5018 1.55364 13.7204C2.33504 12.939 3.39485 12.5 4.49992 12.5H9.49992C10.605 12.5 11.6648 12.939 12.4462 13.7204C13.2276 14.5018 13.6666 15.5616 13.6666 16.6666V18.3333ZM6.99992 10.8333C6.34331 10.8333 5.69313 10.704 5.0865 10.4527C4.47987 10.2014 3.92868 9.83314 3.46438 9.36885C3.00009 8.90455 2.63179 8.35336 2.38052 7.74673C2.12925 7.1401 1.99992 6.48992 1.99992 5.83331C1.99992 5.1767 2.12925 4.52652 2.38052 3.9199C2.63179 3.31327 3.00009 2.76207 3.46438 2.29778C3.92868 1.83349 4.47987 1.46519 5.0865 1.21392C5.69313 0.962642 6.34331 0.833313 6.99992 0.833313C8.326 0.833313 9.59777 1.3601 10.5355 2.29778C11.4731 3.23546 11.9999 4.50723 11.9999 5.83331C11.9999 7.1594 11.4731 8.43116 10.5355 9.36885C9.59777 10.3065 8.326 10.8333 6.99992 10.8333ZM6.99992 9.16665C7.88397 9.16665 8.73182 8.81546 9.35694 8.19034C9.98206 7.56521 10.3333 6.71737 10.3333 5.83331C10.3333 4.94926 9.98206 4.10141 9.35694 3.47629C8.73182 2.85117 7.88397 2.49998 6.99992 2.49998C6.11586 2.49998 5.26802 2.85117 4.6429 3.47629C4.01777 4.10141 3.66658 4.94926 3.66658 5.83331C3.66658 6.71737 4.01777 7.56521 4.6429 8.19034C5.26802 8.81546 6.11586 9.16665 6.99992 9.16665Z" fill="#C6C6C6"/>
</svg>
